<?xml version="1.0" standalone="no"?>
<!DOCTYPE svg PUBLIC "-//W3C//DTD SVG 20010904//EN"
 "http://www.w3.org/TR/2001/REC-SVG-20010904/DTD/svg10.dtd">
<svg version="1.0" xmlns="http://www.w3.org/2000/svg"
 width="1080.000000pt" height="1080.000000pt" viewBox="0 0 1080.000000 1080.000000"
 preserveAspectRatio="xMidYMid meet">
<metadata>
Created by potrace 1.16, written by Peter Selinger 2001-2019
</metadata>
<g transform="translate(0.000000,1080.000000) scale(0.100000,-0.100000)"
fill="#000000" stroke="none">
<path d="M0 5400 l0 -5400 5400 0 5400 0 0 5400 0 5400 -5400 0 -5400 0 0
-5400z m4067 2228 c45 -50 213 -314 213 -336 0 -13 -84 -144 -201 -313 -110
-160 -199 -292 -197 -294 2 -1 30 -10 63 -20 244 -69 469 -246 593 -465 147
-261 181 -621 85 -924 -104 -332 -371 -585 -708 -672 -374 -96 -767 13 -1014
282 -175 191 -266 421 -277 704 -19 447 192 828 561 1010 55 27 137 59 182 71
l82 22 -53 76 c-234 335 -346 504 -346 521 0 20 173 294 213 338 l20 22 382 0
382 0 20 -22z m-2270 -929 c213 -23 403 -94 506 -189 68 -62 98 -121 100 -193
1 -64 -18 -100 -61 -115 -29 -10 -30 -9 -42 31 -24 81 -63 143 -135 212 -311
303 -809 291 -1110 -26 -84 -89 -107 -121 -158 -224 -82 -163 -115 -297 -124
-495 -15 -348 80 -628 286 -844 158 -165 337 -241 566 -240 135 0 224 20 350
78 140 65 339 222 406 321 13 19 27 35 32 35 4 0 7 -51 7 -114 l0 -113 -49
-46 c-129 -121 -435 -207 -737 -207 -408 0 -745 205 -918 558 -71 144 -105
284 -112 462 -27 631 411 1111 1019 1119 43 1 121 -4 174 -10z m3376 -116 c50
-69 1029 -1451 1225 -1730 54 -78 82 -85 82 -20 0 23 -27 442 -60 930 -33 488
-60 892 -60 897 0 6 36 10 84 10 l84 0 7 -90 c4 -50 6 -513 4 -1030 l-4 -940
-85 0 -85 1 -465 656 c-971 1370 -876 1241 -897 1220 -11 -11 -10 -63 7 -313
11 -164 22 -321 25 -349 3 -27 21 -286 40 -575 19 -289 37 -551 40 -582 l6
-58 -91 0 -90 0 0 1030 0 1030 84 0 84 0 65 -87z m2464 76 c417 -56 739 -358
824 -774 52 -252 25 -503 -76 -721 -130 -283 -394 -485 -702 -539 -65 -11
-172 -15 -454 -15 l-369 0 0 1030 0 1030 349 0 c192 0 385 -5 428 -11z m2543
-83 l0 -94 -72 19 c-102 26 -410 77 -578 94 -240 26 -505 36 -548 22 -59 -19
-61 -33 -61 -447 -1 -322 1 -368 15 -389 35 -50 48 -51 564 -51 l480 0 0 -85
c0 -47 -2 -85 -4 -85 -2 0 -46 9 -97 19 -245 50 -649 101 -807 101 -90 0 -95
-1 -123 -29 l-29 -29 1 -439 c0 -312 4 -448 12 -473 18 -53 52 -61 232 -55
325 13 801 75 993 131 22 6 22 5 22 -85 l0 -91 -715 0 -715 0 0 1023 c0 563 3
1027 7 1030 3 4 325 7 715 7 l708 0 0 -94z m-8636 -2685 c21 -5 52 -22 68 -38
29 -27 53 -71 44 -80 -11 -12 -62 10 -71 30 -13 29 -75 51 -120 43 -51 -10
-75 -38 -75 -85 0 -46 29 -75 91 -91 22 -5 57 -15 79 -20 23 -6 55 -24 72 -39
27 -24 32 -35 32 -79 2 -108 -102 -175 -221 -143 -53 14 -103 61 -103 95 0 21
5 26 24 26 16 0 27 -7 31 -20 20 -63 130 -82 185 -32 22 19 31 37 32 59 2 54
-34 82 -131 102 -103 22 -141 62 -141 147 0 36 6 51 33 80 43 47 98 61 171 45z
m4971 -15 c195 -82 202 -370 12 -468 -192 -97 -411 74 -367 286 33 158 203
245 355 182z m2829 15 c21 -5 52 -22 68 -38 29 -27 53 -71 44 -80 -11 -12 -62
10 -71 30 -13 29 -75 51 -120 43 -51 -10 -75 -38 -75 -85 0 -46 29 -75 91 -91
22 -5 57 -15 79 -20 23 -6 55 -24 72 -39 27 -24 32 -35 32 -79 2 -108 -102
-175 -221 -143 -53 14 -103 61 -103 95 0 21 5 26 24 26 16 0 27 -7 31 -20 20
-63 130 -82 185 -32 22 19 31 37 32 59 2 54 -34 82 -131 102 -103 22 -141 62
-141 147 0 36 6 51 33 80 43 47 98 61 171 45z m-6744 -21 c0 -19 -7 -20 -100
-20 l-100 0 0 -89 c0 -104 -3 -101 106 -101 67 0 74 -2 74 -20 0 -19 -7 -20
-90 -20 l-90 0 0 -95 0 -95 100 0 c93 0 100 -1 100 -20 0 -19 -7 -20 -130 -20
l-130 0 0 250 0 250 130 0 c123 0 130 -1 130 -20z m793 -112 c35 -73 78 -166
97 -205 18 -40 36 -73 39 -73 4 0 49 92 101 205 90 193 97 204 123 205 l27 0
0 -250 0 -250 -30 0 -30 0 -2 179 -3 179 -84 -180 c-69 -144 -88 -178 -103
-176 -13 2 -39 47 -88 149 -38 81 -78 162 -89 180 l-21 34 0 -182 0 -183 -25
0 -25 0 0 250 0 250 25 0 c22 0 32 -15 88 -132z m1127 -118 l0 -250 -30 0 -30
0 0 250 0 250 30 0 30 0 0 -250z m940 50 c0 -218 -7 -254 -54 -285 -81 -53
-189 -14 -211 78 -6 24 -5 27 19 27 16 0 29 -7 33 -17 21 -60 93 -83 133 -43
19 19 20 33 20 230 l0 210 30 0 30 0 0 -200z m1920 -50 l0 -250 -25 0 -25 0 0
250 0 250 25 0 25 0 0 -250z m923 213 c23 -52 167 -445 167 -456 0 -5 -12 -7
-26 -5 -22 2 -30 13 -46 56 l-19 52 -118 0 -117 0 -19 -55 c-16 -49 -21 -55
-46 -55 l-28 0 30 83 c163 445 151 417 180 417 20 0 29 -8 42 -37z"/>
<path d="M3402 7470 c29 -44 55 -80 58 -80 3 0 29 36 58 80 l52 80 -110 0
-110 0 52 -80z"/>
<path d="M3812 7470 c29 -44 55 -80 58 -80 3 0 29 36 58 80 l52 80 -110 0
-110 0 52 -80z"/>
<path d="M3612 7430 l-52 -80 106 0 106 0 -18 28 c-40 62 -87 132 -88 132 -1
0 -25 -36 -54 -80z"/>
<path d="M3206 7228 c18 -29 338 -494 346 -503 6 -6 7 -5 4 5 -3 8 -28 103
-56 210 -28 107 -58 219 -66 248 l-15 52 -110 0 c-81 0 -108 -3 -103 -12z"/>
<path d="M3534 7213 c23 -93 129 -483 132 -480 4 4 134 487 134 498 0 5 -61 9
-136 9 l-136 0 6 -27z"/>
<path d="M3906 7223 c-3 -10 -32 -121 -66 -248 -33 -126 -63 -237 -66 -245 -3
-10 -2 -11 4 -5 9 9 329 475 346 503 5 9 -17 12 -103 12 -96 0 -110 -2 -115
-17z"/>
<path d="M3545 6659 c-216 -28 -414 -149 -557 -339 -33 -44 -110 -198 -133
-265 -74 -222 -84 -521 -25 -748 74 -282 262 -523 488 -624 398 -179 855 -9
1061 397 85 166 119 302 128 505 11 261 -54 516 -180 705 -43 64 -163 185
-228 230 -168 116 -360 164 -554 139z"/>
<path d="M7099 6624 c-15 -3 -35 -14 -45 -26 -18 -19 -19 -60 -21 -952 -2
-736 0 -936 10 -956 20 -40 66 -49 258 -49 202 -1 311 14 427 59 289 111 475
343 552 685 30 131 33 359 6 483 -74 348 -257 579 -551 696 -119 47 -184 57
-405 61 -113 2 -217 1 -231 -1z"/>
<path d="M6337 3835 c-101 -35 -150 -148 -117 -267 38 -135 222 -183 329 -85
85 78 79 253 -10 319 -64 48 -131 59 -202 33z"/>
<path d="M8252 3789 c-5 -13 -26 -68 -46 -122 -20 -53 -36 -102 -36 -107 0 -6
40 -10 95 -10 52 0 95 2 95 4 0 6 -92 250 -96 255 -2 2 -7 -7 -12 -20z"/>
</g>
</svg>
